# xmcd
#
# Track frame offsets: 
#        150
#        20041
#        36425
#        49799
#        64484
#        84548
#        102015
#        114239
#        129180
#        148877
#        167070
#        191085
#
# Disc length: 2773 seconds
#
# Revision: 0
# Processed by: cddbd v1.5.2PL0 Copyright (c) Steve Scherf et al.
# Submitted via: ExactAudioCopy v0.99pb3
#
DISCID=a90ad30c
DTITLE=Tomcat Courtney - Foot Stompin'
DYEAR=2012
DGENRE=Blues
TTITLE0=Evil Hearted Woman
TTITLE1=Big Butt Sally
TTITLE2=Nightcap Mama
TTITLE3=Chains Of Love
TTITLE4=Recession Blues
TTITLE5=Another Man Answered My Baby's Door
TTITLE6=Crack House
TTITLE7=Hoodoo Woman
TTITLE8=Oh Baby
TTITLE9=St. Louis Blues
TTITLE10=Rock Me
TTITLE11=Trolley Blues
EXTD=
EXTT0=
EXTT1=
EXTT2=
EXTT3=
EXTT4=
EXTT5=
EXTT6=
EXTT7=
EXTT8=
EXTT9=
EXTT10=
EXTT11=
PLAYORDER=
